<svg width="20" height="17" viewBox="0 0 20 17" fill="none" xmlns="http://www.w3.org/2000/svg">
<path fill-rule="evenodd" clip-rule="evenodd" d="M10.0081 2.25641L9.5015 1.66434C7.46296 -0.374194 4.21201 -0.235278 2.17347 1.80326C0.134936 3.8418 0.527258 7.78296 2.56579 9.8215C3.39315 10.6489 4.63217 11.7944 6.28285 13.2581L7.67155 14.4798L9.23129 15.8337C9.66075 16.2044 10.2953 16.2101 10.7313 15.8471L11.9948 14.7877C14.2076 12.9177 15.8496 11.4448 16.9209 10.3689L17.1989 10.0854L17.4486 9.8215C19.3471 7.77416 19.835 3.79439 17.8439 1.80326L17.6996 1.66434C15.6523 -0.234175 12.5651 -0.326786 10.5739 1.66434L10.0081 2.25641ZM2.99374 2.62335C4.6057 1.0114 7.09948 0.935824 8.65131 2.45479L9.96057 3.98495L11.4126 2.46566C12.9019 0.976736 15.2755 0.99826 16.9109 2.51477L17.0392 2.63865C18.4463 4.04596 18.2069 7.29762 16.598 9.0326L16.3564 9.28789L16.0882 9.56125C15.2002 10.4525 13.884 11.6466 12.1487 13.1337L11.2461 13.9016L9.98924 14.9554L8.43197 13.6037L7.31742 12.6246C5.74693 11.2366 4.5354 10.1264 3.68713 9.29837L3.38606 9.0011C1.70674 7.32178 1.4967 4.1204 2.99374 2.62335Z" fill="#262626"/>
</svg>
