<svg width="22" height="5" viewBox="0 0 22 5" fill="none" xmlns="http://www.w3.org/2000/svg">
<path fill-rule="evenodd" clip-rule="evenodd" d="M3.26666 4.64C4.54796 4.64 5.58666 3.6013 5.58666 2.32C5.58666 1.0387 4.54796 0 3.26666 0C1.98535 0 0.946655 1.0387 0.946655 2.32C0.946655 3.6013 1.98535 4.64 3.26666 4.64Z" fill="#3897F0"/>
<path fill-rule="evenodd" clip-rule="evenodd" d="M11 4.64C12.2813 4.64 13.32 3.6013 13.32 2.32C13.32 1.0387 12.2813 0 11 0C9.71869 0 8.67999 1.0387 8.67999 2.32C8.67999 3.6013 9.71869 4.64 11 4.64Z" fill="black" fill-opacity="0.15"/>
<path fill-rule="evenodd" clip-rule="evenodd" d="M18.7333 4.64C20.0146 4.64 21.0533 3.6013 21.0533 2.32C21.0533 1.0387 20.0146 0 18.7333 0C17.452 0 16.4133 1.0387 16.4133 2.32C16.4133 3.6013 17.452 4.64 18.7333 4.64Z" fill="black" fill-opacity="0.15"/>
</svg>
