<svg width="16" height="19" viewBox="0 0 16 19" fill="none" xmlns="http://www.w3.org/2000/svg">
<path fill-rule="evenodd" clip-rule="evenodd" d="M0.0521851 0.951608V17.6961C0.0521851 17.8993 0.132174 18.0944 0.274854 18.2391C0.574726 18.5432 1.06436 18.5467 1.36849 18.2468L7.97942 11.7283L14.5904 18.2468C14.7351 18.3895 14.9301 18.4695 15.1333 18.4695C15.5604 18.4695 15.9067 18.1232 15.9067 17.6961V0.951608C15.9067 0.738058 15.7335 0.564941 15.52 0.564941H0.438852C0.225302 0.564941 0.0521851 0.738058 0.0521851 0.951608ZM1.21217 16.7718V1.72487H14.7466V16.7718L8.52238 10.6345C8.22128 10.3376 7.73754 10.3376 7.43644 10.6345L1.21217 16.7718Z" fill="#262626"/>
</svg>
